<?xml version="1.0" encoding="UTF-8"?>
<svg id="Layer_1" data-name="Layer 1" xmlns="http://www.w3.org/2000/svg" viewBox="0 0 237.45 101.49">
  <defs>
    <style>
      .cls-1 {
        fill: #383938;
      }

      .cls-2 {
        fill: #e85a24;
      }
    </style>
  </defs>
  <path class="cls-1" d="M.71,26.81c.27.18.48.36.75.48,3.83,1.85,8.13,1.32,12.04-.09,1.32-.48,2.6-1.02,3.92-1.49,7.56-3.08,15.51-5.59,23.7-5.89,8.4-.27,16.8,1.67,24.84,4.09,9.71,2.9,19.13,6.07,29.14,7.56,11.48,1.76,23.25,2.42,34.91,1.67,3.47-.18,6.9-.48,10.37-.93.48-.09,1.02-.09,1.49-.27.48-.18,0-.36-.36-.48-1.02-.09-2.15,0-3.26,0-1.02,0-2.06.09-3.17.09h-6.34c-4.21-.09-8.49-.27-12.7-.66-4.21-.36-8.49-.93-12.7-1.58s-8.4-1.49-12.52-2.51-8.22-2.15-12.22-3.47c-2.99-.93-5.98-2.06-8.88-3.17-8.88-3.56-18.2-6.64-27.83-6.9-9.44-.27-18.02,2.9-26.24,7.29-3.56,1.85-7.56,4.21-11.78,3.56-.66-.09-1.23-.18-1.76-.48-.36-.09-.93-.36-1.4-.18-.36.09-.66.57-.66,1.02-.09.57-.09,1.11.18,1.67.12.3.21.48.48.66Z"/>
  <path class="cls-1" d="M219.37,29.17c-.57-.18-1.11-.48-1.76-.66-6.34-2.24-12.97-4-19.7-4.66-6.99-.66-14.02-.27-20.92-.09-6.34.18-12.79.09-19.04-1.11-7.95-1.67-15.21-5.59-22.77-8.58-8.04-3.08-16.26-5.89-24.66-7.83-9.06-2.15-18.59-3.35-28-2.99-9.44.27-18.38,2.51-27.35,5.41-.66.18-1.4.48-1.97.66l-1.76.57-2.72.93-2.24.75.57-.27c.36-.18.93-.48,1.67-.75s1.58-.75,2.6-1.23c.48-.27,1.02-.48,1.67-.75.57-.27,1.23-.57,1.97-.84,8.88-3.74,18.11-6.64,27.74-7.47,10.19-.84,20.35.36,30.25,2.51,8.58,1.85,16.89,4.48,25.02,7.74,6.25,2.51,12.52,5.14,18.95,7.08,6.81,1.97,13.63,2.15,20.74,2.06,9.32-.18,18.29-.09,27.44,1.85,5.05,1.02,9.89,2.81,14.56,4.96,4.66,2.15,9.06,4.66,13.45,7.38.84.48,1.58,1.02,2.33,1.58.84.66,1.49,1.58,1.97,2.6.09.09.09.18-.09.27-.09.09-.36,0-.36,0-.93-.36-1.4-.93-2.24-1.58s-1.67-1.32-2.6-1.85c-2.24-1.32-4.57-2.51-6.99-3.56-1.88-.78-3.77-1.52-5.74-2.15Z"/>
  <path class="cls-2" d="M26.99,47.72c4.84,0,9.06.84,12.7,2.42,3.56,1.58,6.34,3.92,8.31,6.9s2.9,6.55,2.9,10.55-.93,7.56-2.9,10.55-4.75,5.23-8.31,6.81-7.83,2.42-12.7,2.42h-9.35v14.11H2.42v-53.77h24.57ZM26.03,75.43c3.17,0,5.5-.66,7.08-2.06s2.42-3.26,2.42-5.8-.84-4.48-2.42-5.89c-1.58-1.4-3.92-2.06-7.08-2.06h-8.4v15.81h8.4Z"/>
  <path class="cls-2" d="M101.77,91.03h-22.68l-4.21,10.46h-15.51l23.73-53.77h14.94l23.82,53.77h-15.78l-4.3-10.46ZM97.29,79.82l-6.9-17.27-6.9,17.19h13.81s0,.09,0,.09Z"/>
  <path class="cls-2" d="M178.3,89.44v12.04h-48.18v-9.53l27.17-32.22h-26.42v-12.01h46.3v9.53l-27.17,32.19h28.3Z"/>
  <path class="cls-2" d="M237.16,89.44v12.04h-48.18v-9.53l27.17-32.22h-26.51v-12.01h46.3v9.53l-27.17,32.22h28.39v-.03Z"/>
</svg>